HIERARCHY
ROOT wineglass3
{
	OFFSET 0.000000 0.000000 0.000000
	CHANNELS 6 Xposition Yposition Zposition Yrotation Xrotation Zrotation
	End Site
	{
		OFFSET 0.000000 0.000000 0.000000
	}
}
MOTION
Frames: 184
Frame Time: 0.008333334
3.026138 6.595736 3.870672 90.361550 31.631420 14.265640 
3.029449 6.594072 3.872926 90.524050 31.641270 14.418760 
3.034081 6.593366 3.875709 90.796270 31.879450 14.686650 
3.039006 6.592005 3.877653 90.993340 32.292400 14.940150 
3.045643 6.590584 3.880519 91.227110 32.644980 15.058220 
3.051950 6.589882 3.882309 91.436870 32.963380 15.162610 
3.058256 6.588885 3.883864 91.757320 33.450160 15.414050 
3.065787 6.587363 3.885301 92.124470 33.971230 15.514630 
3.071093 6.586036 3.887016 92.350700 34.330560 15.772550 
3.075391 6.584708 3.887471 92.386030 34.501940 15.850120 
3.078696 6.582063 3.888195 92.421010 34.562520 16.045270 
3.080592 6.579376 3.888216 92.237880 34.611690 16.173530 
3.082093 6.576699 3.887213 92.007400 34.713100 16.262680 
3.083425 6.573466 3.885679 91.818490 34.882030 16.270680 
3.085587 6.570767 3.884098 91.835640 35.041480 16.348020 
3.087848 6.568996 3.882520 92.036580 35.234660 16.348280 
3.089035 6.567658 3.881327 92.179220 35.511860 16.361940 
3.088803 6.567088 3.880602 92.259210 35.635680 16.327180 
3.087500 6.566969 3.879762 92.370130 35.726700 16.315990 
3.084509 6.567364 3.878720 92.483040 35.702200 16.364680 
3.080368 6.567737 3.877989 92.396550 35.548150 16.315180 
3.075512 6.569053 3.876338 92.297280 35.479890 16.161500 
3.070870 6.570525 3.874322 92.197670 35.353080 16.045940 
3.066649 6.572155 3.872825 92.083730 35.223790 15.914980 
3.062273 6.574250 3.871772 91.938370 35.054160 15.693810 
3.057830 6.576611 3.869951 91.788730 34.712310 15.516250 
3.052459 6.578911 3.869177 91.540500 34.449250 15.414770 
3.047060 6.582372 3.867748 91.276950 34.097310 15.267500 
3.041884 6.585223 3.865546 91.055600 33.850350 15.168300 
3.036986 6.588396 3.862428 90.539410 33.622380 14.572980 
3.031921 6.592572 3.857788 89.651050 33.575660 13.964850 
3.027638 6.596964 3.851079 88.464280 33.617060 13.025420 
3.022660 6.602208 3.843971 86.928680 33.563050 12.048900 
3.016171 6.607938 3.835831 84.883410 33.513320 10.694290 
3.008685 6.613881 3.825712 82.353600 33.493990 9.054061 
3.000708 6.620891 3.815322 78.939530 33.317070 6.931258 
2.990680 6.627708 3.805332 74.963620 33.097140 4.632729 
2.981279 6.636244 3.794776 71.040990 32.506110 2.447450 
2.972574 6.644139 3.784597 66.802370 31.787230 0.148946 
2.963419 6.651624 3.775892 62.732940 30.969690 -2.063995 
2.953678 6.658182 3.767884 58.953340 30.035500 -3.871002 
2.945514 6.664599 3.761088 55.390170 29.116530 -5.734070 
2.939629 6.670003 3.756762 52.229680 27.893860 -7.298401 
2.932417 6.673432 3.755098 48.859410 26.948670 -8.535583 
2.927579 6.675334 3.757111 45.742610 25.975070 -9.707458 
2.923591 6.675422 3.760547 42.577580 25.259460 -10.788090 
2.922955 6.674781 3.767200 39.467260 24.393400 -11.688690 
2.923372 6.672117 3.774276 36.448690 23.600160 -12.500640 
2.927116 6.666921 3.782433 33.482510 22.900020 -13.450840 
2.930239 6.661303 3.789345 30.614880 22.205610 -14.391360 
2.933332 6.656033 3.792905 27.835560 21.252780 -15.362030 
2.933049 6.650589 3.792070 24.761600 20.058460 -16.139010 
2.932181 6.646599 3.785194 21.399230 18.375740 -17.082150 
2.931136 6.642547 3.775436 18.143960 16.344900 -18.004700 
2.930830 6.638196 3.763125 14.416310 14.008030 -18.829740 
2.930916 6.632083 3.749217 10.444880 11.579380 -19.386110 
2.932744 6.626085 3.737961 6.374084 9.025374 -20.145900 
2.935279 6.619547 3.728895 2.418332 6.517730 -20.562930 
2.938135 6.612896 3.722464 -1.675964 4.424642 -20.820950 
2.939620 6.607361 3.719568 -5.283142 2.356739 -20.847960 
2.939555 6.601901 3.719898 -8.687561 1.100340 -20.416410 
2.940060 6.596423 3.723199 -11.709110 -0.054077 -20.235440 
2.940048 6.591849 3.728497 -14.562440 -1.016724 -20.002350 
2.939535 6.586576 3.735233 -17.113710 -1.929871 -19.930940 
2.940144 6.581910 3.739827 -19.122250 -2.627228 -19.687320 
2.940615 6.578631 3.743603 -20.657320 -3.193909 -19.583530 
2.939293 6.576502 3.743774 -22.005370 -3.727905 -19.322570 
2.938447 6.576250 3.743225 -22.691280 -4.186829 -19.127260 
2.937600 6.576896 3.741905 -23.091000 -4.611023 -18.925930 
2.937463 6.577878 3.741458 -23.475430 -4.945435 -18.877660 
2.938617 6.577576 3.742353 -23.808040 -5.030273 -18.796510 
2.940184 6.577974 3.743845 -24.080350 -5.268219 -18.956210 
2.942325 6.577653 3.745749 -24.320310 -5.282379 -19.135100 
2.944858 6.577238 3.746988 -24.678830 -5.350769 -19.426730 
2.947904 6.577162 3.748661 -25.021330 -5.454315 -19.556950 
2.952521 6.576384 3.749964 -25.474730 -5.553070 -19.813020 
2.955894 6.575593 3.751111 -25.902980 -5.572510 -20.012270 
2.958255 6.575220 3.751900 -26.445070 -5.532898 -19.970700 
2.960084 6.574907 3.752557 -27.359830 -5.424194 -20.027440 
2.961760 6.574952 3.753453 -28.125340 -5.328735 -20.024720 
2.963884 6.576423 3.754369 -28.698550 -5.147675 -19.401180 
2.964969 6.577085 3.754272 -29.535740 -4.940063 -19.117280 
2.965953 6.577456 3.753199 -30.371770 -4.810394 -18.663420 
2.965772 6.576684 3.749864 -31.536650 -4.533508 -18.186520 
2.966663 6.575876 3.746507 -32.491520 -4.373688 -17.514040 
2.968179 6.574713 3.741752 -33.561000 -4.238495 -16.949250 
2.969145 6.572729 3.737998 -34.684660 -3.929291 -16.227940 
2.969184 6.570884 3.734958 -35.911220 -3.785034 -15.656250 
2.968474 6.569841 3.731570 -37.103670 -3.529785 -14.986720 
2.966577 6.568233 3.730006 -38.192660 -3.059448 -14.509310 
2.965593 6.567291 3.730798 -39.079990 -2.511230 -14.377320 
2.964123 6.566957 3.733321 -40.049380 -2.021240 -14.374880 
2.963987 6.567952 3.736895 -40.832820 -1.632324 -14.502960 
2.963133 6.569201 3.741315 -41.524930 -1.233368 -14.860900 
2.962353 6.571054 3.745630 -42.019100 -1.087433 -15.209260 
2.962006 6.573767 3.749108 -42.389590 -0.886261 -15.449620 
2.960925 6.576332 3.752304 -42.617000 -0.745453 -15.772310 
2.958818 6.578976 3.755633 -42.772400 -0.915802 -15.996150 
2.956609 6.582027 3.757165 -42.736820 -1.020416 -16.069400 
2.953360 6.585634 3.758344 -42.779360 -1.236237 -16.309390 
2.949960 6.589562 3.759205 -42.674290 -1.416016 -16.144500 
2.945279 6.593436 3.759928 -42.618500 -1.661438 -15.917270 
2.938920 6.597093 3.761572 -42.510160 -1.817505 -15.796540 
2.932559 6.600776 3.762590 -42.584260 -1.691406 -15.836880 
2.924153 6.604678 3.764348 -42.656160 -1.507019 -15.634460 
2.915172 6.608128 3.765542 -42.730440 -1.215973 -15.388310 
2.904109 6.610511 3.766477 -42.911990 -0.947296 -15.009430 
2.894800 6.613609 3.766199 -43.042940 -0.785034 -14.688840 
2.885965 6.616199 3.765985 -43.192080 -0.545380 -14.290500 
2.878529 6.618367 3.766588 -43.451420 -0.371857 -14.152770 
2.872181 6.620822 3.766387 -43.671940 -0.331085 -13.985720 
2.868184 6.622093 3.766817 -43.751460 -0.334992 -13.873290 
2.864366 6.622993 3.766149 -43.898710 -0.372162 -14.000950 
2.860936 6.623879 3.766173 -43.911990 -0.367889 -13.921020 
2.857193 6.624403 3.765306 -44.108980 -0.357880 -13.872380 
2.853471 6.624520 3.764954 -44.152920 -0.386658 -13.876430 
2.850116 6.625127 3.764638 -44.429080 -0.446167 -13.867100 
2.844981 6.626421 3.761499 -45.074680 -0.599152 -13.722630 
2.838673 6.628624 3.755571 -46.054870 -0.822449 -13.375820 
2.832829 6.631121 3.748339 -47.243900 -1.346008 -13.088990 
2.827872 6.633440 3.739547 -48.748720 -1.921692 -12.618410 
2.823684 6.635551 3.731238 -50.643250 -2.637177 -12.128420 
2.820280 6.637201 3.722590 -52.661870 -3.383301 -11.745240 
2.817842 6.638825 3.715038 -55.181820 -4.254669 -11.169590 
2.815055 6.639948 3.707305 -57.877840 -5.207397 -10.655550 
2.813457 6.641412 3.701056 -60.845280 -6.141541 -9.932495 
2.810987 6.643157 3.695667 -64.001530 -7.180573 -9.387573 
2.809143 6.644122 3.690853 -67.108580 -8.083130 -8.731750 
2.806738 6.645155 3.687930 -70.507810 -8.785309 -8.309906 
2.804760 6.646258 3.685811 -73.739320 -9.484436 -7.241486 
2.800239 6.647036 3.687125 -77.454380 -10.149540 -6.364532 
2.795239 6.645787 3.690114 -81.195890 -10.684140 -5.990967 
2.791337 6.645514 3.692880 -84.808040 -11.049740 -5.162964 
2.786715 6.644630 3.698383 -88.750150 -11.494600 -4.418701 
2.783524 6.643270 3.704705 -92.485930 -12.029570 -3.485382 
2.781505 6.641024 3.711788 -95.967130 -12.362090 -2.917725 
2.780557 6.638576 3.719944 -99.126010 -12.730900 -2.346283 
2.778343 6.635373 3.728478 -102.414800 -13.205230 -2.054291 
2.776541 6.632323 3.737678 -105.497400 -13.594790 -1.481598 
2.774768 6.629089 3.747398 -108.552600 -13.941650 -0.863281 
2.771163 6.625024 3.757323 -112.069200 -14.277740 -0.444855 
2.767665 6.620676 3.769127 -115.817400 -14.651370 0.611650 
2.764843 6.616636 3.781370 -119.610700 -14.793640 1.563902 
2.762496 6.612115 3.792870 -123.605900 -14.998260 2.697230 
2.761541 6.607654 3.804290 -127.602100 -14.768130 3.728970 
2.760349 6.603494 3.814025 -131.377500 -14.675870 4.979793 
2.760111 6.598104 3.823026 -134.822000 -14.576810 6.150075 
2.761855 6.592772 3.832103 -137.549100 -14.567200 7.299340 
2.766751 6.587519 3.840626 -139.771100 -14.179810 7.813059 
2.769227 6.582069 3.849584 -141.857400 -14.144810 8.830507 
2.773033 6.578039 3.858816 -143.577500 -13.825740 9.376886 
2.777818 6.574475 3.866361 -144.992400 -13.639010 9.911413 
2.782338 6.571207 3.873386 -146.188300 -13.485440 10.421600 
2.785514 6.570097 3.876927 -147.032600 -13.322420 11.030780 
2.789141 6.570329 3.877432 -147.478100 -13.024230 11.479770 
2.792176 6.572084 3.874357 -147.768400 -12.594910 12.036530 
2.796194 6.574546 3.870259 -148.135300 -12.149600 12.505100 
2.800819 6.576900 3.865153 -148.575200 -11.909480 13.122470 
2.806047 6.578622 3.861429 -148.807200 -11.645690 13.587580 
2.811641 6.579827 3.859724 -148.931200 -11.519290 14.092540 
2.818000 6.579968 3.861454 -149.014100 -11.561280 14.440980 
2.823860 6.579675 3.863701 -149.050300 -11.681790 14.637510 
2.829179 6.580172 3.865023 -149.098200 -11.778350 14.703920 
2.834302 6.580589 3.865049 -149.112800 -11.783720 14.826670 
2.838559 6.581716 3.864647 -149.259000 -11.778260 14.848800 
2.841938 6.581986 3.864413 -149.429200 -11.838780 14.985570 
2.846185 6.582086 3.863748 -149.580800 -11.937190 15.059560 
2.849781 6.582313 3.863013 -149.974500 -12.034060 15.243530 
2.852971 6.582189 3.862279 -150.392000 -12.034820 15.511550 
2.855253 6.582145 3.860748 -150.818400 -11.942540 15.428980 
2.856248 6.582232 3.859158 -151.330700 -11.845490 15.271570 
2.857035 6.581730 3.856945 -151.892300 -11.590580 15.033670 
2.856352 6.580638 3.855703 -152.646300 -11.321870 14.617610 
2.854822 6.579216 3.854056 -153.456000 -11.150730 14.301930 
2.853360 6.577312 3.851264 -154.196900 -10.886720 13.806550 
2.851388 6.575392 3.848653 -154.999000 -10.670320 13.240090 
2.849675 6.573687 3.846389 -155.781800 -10.493320 12.897870 
2.849447 6.571980 3.844330 -156.376800 -10.288060 12.476170 
2.849998 6.570736 3.842220 -156.860500 -10.162660 12.260380 
2.851846 6.569703 3.840637 -157.373200 -10.069700 12.158870 
2.855131 6.569042 3.838949 -157.743600 -10.120640 12.138230 
2.861198 6.568686 3.839017 -157.983400 -10.294040 12.397040 
2.867911 6.568982 3.839167 -158.341300 -10.468320 12.730860 
2.877107 6.568942 3.839777 -158.462200 -10.844730 13.491920 
